<svg width="1783" height="930" xmlns="http://www.w3.org/2000/svg" xmlns:xlink="http://www.w3.org/1999/xlink" xml:space="preserve" overflow="hidden"><defs><filter id="fx0" x="-10%" y="-10%" width="120%" height="120%" filterUnits="userSpaceOnUse" primitiveUnits="userSpaceOnUse"><feComponentTransfer color-interpolation-filters="sRGB"><feFuncR type="discrete" tableValues="0.000000 0.000000"/><feFuncG type="discrete" tableValues="0.000000 0.000000"/><feFuncB type="discrete" tableValues="0.000000 0.000000"/><feFuncA type="linear" slope="0.400000" intercept="0.000000"/></feComponentTransfer><feGaussianBlur stdDeviation="1.725431 1.725431"/></filter><filter id="fx1" x="-10%" y="-10%" width="120%" height="120%" filterUnits="userSpaceOnUse" primitiveUnits="userSpaceOnUse"><feComponentTransfer color-interpolation-filters="sRGB"><feFuncR type="discrete" tableValues="0.000000 0.000000"/><feFuncG type="discrete" tableValues="0.000000 0.000000"/><feFuncB type="discrete" tableValues="0.000000 0.000000"/><feFuncA type="linear" slope="0.400000" intercept="0.000000"/></feComponentTransfer><feGaussianBlur stdDeviation="1.725431 1.725431"/></filter><filter id="fx2" x="-10%" y="-10%" width="120%" height="120%" filterUnits="userSpaceOnUse" primitiveUnits="userSpaceOnUse"><feComponentTransfer color-interpolation-filters="sRGB"><feFuncR type="discrete" tableValues="0.000000 0.000000"/><feFuncG type="discrete" tableValues="0.000000 0.000000"/><feFuncB type="discrete" tableValues="0.000000 0.000000"/><feFuncA type="linear" slope="0.400000" intercept="0.000000"/></feComponentTransfer><feGaussianBlur stdDeviation="1.725431 1.725431"/></filter><filter id="fx3" x="-10%" y="-10%" width="120%" height="120%" filterUnits="userSpaceOnUse" primitiveUnits="userSpaceOnUse"><feComponentTransfer color-interpolation-filters="sRGB"><feFuncR type="discrete" tableValues="0.000000 0.000000"/><feFuncG type="discrete" tableValues="0.000000 0.000000"/><feFuncB type="discrete" tableValues="0.000000 0.000000"/><feFuncA type="linear" slope="0.400000" intercept="0.000000"/></feComponentTransfer><feGaussianBlur stdDeviation="1.725431 1.725431"/></filter><clipPath id="clip4"><rect x="2062" y="1274" width="1783" height="930"/></clipPath><clipPath id="clip5"><rect x="2062" y="1274" width="1783" height="930"/></clipPath></defs><g clip-path="url(#clip4)" transform="translate(-2062 -1274)"><g clip-path="url(#clip5)"><path d="M2748.5 1808.34C2748.5 1765.35 2783.35 1730.5 2826.34 1730.5L3186.67 1730.5C3229.65 1730.5 3264.5 1765.35 3264.5 1808.34L3264.5 2119.66C3264.5 2162.65 3229.65 2197.5 3186.67 2197.5L2826.34 2197.5C2783.35 2197.5 2748.5 2162.65 2748.5 2119.66Z" stroke="#C00000" stroke-width="6.875" stroke-linecap="butt" stroke-linejoin="miter" stroke-miterlimit="8" stroke-opacity="1" fill="none" fill-rule="evenodd"/><text fill="#C00000" fill-opacity="1" font-family="Aptos,Aptos_MSFontService,sans-serif" font-style="normal" font-variant="normal" font-weight="400" font-stretch="normal" font-size="83" text-anchor="start" direction="ltr" writing-mode="lr-tb" unicode-bidi="normal" text-decoration="none" transform="matrix(1 0 0 1 2877.95 1990)">Battery</text><path d="M2543.5 1379.06 3431.38 1379.06 3431.38 1385.94 2543.5 1385.94ZM3426.8 1368.75 3454.3 1382.5 3426.8 1396.25Z" fill="#C00000" fill-rule="nonzero" fill-opacity="1"/><path d="M2566.42 1595.06 3451 1595.06 3451 1601.94 2566.42 1601.94ZM2571 1612.25 2543.5 1598.5 2571 1584.75Z" fill="#C00000" fill-rule="nonzero" fill-opacity="1"/><text fill="#C00000" fill-opacity="1" font-family="Cambria Math,Cambria Math_MSFontService,sans-serif" font-style="normal" font-variant="normal" font-weight="400" font-stretch="normal" font-size="83" text-anchor="start" direction="ltr" writing-mode="lr-tb" unicode-bidi="normal" text-decoration="none" transform="matrix(1 0 0 1 2306.39 1416)">ğ‘·</text><text fill="#C00000" fill-opacity="1" font-family="Cambria Math,Cambria Math_MSFontService,sans-serif" font-style="normal" font-variant="normal" font-weight="400" font-stretch="normal" font-size="60" text-anchor="start" direction="ltr" writing-mode="lr-tb" unicode-bidi="normal" text-decoration="none" transform="matrix(1 0 0 1 2363.1 1439)">ğ’•</text><text fill="#C00000" fill-opacity="1" font-family="Cambria Math,Cambria Math_MSFontService,sans-serif" font-style="normal" font-variant="normal" font-weight="400" font-stretch="normal" font-size="60" text-anchor="start" direction="ltr" writing-mode="lr-tb" unicode-bidi="normal" text-decoration="none" transform="matrix(1 0 0 1 2363.1 1372)">ğ’Šğ’ğ’‘</text><text fill="#C00000" fill-opacity="1" font-family="Cambria Math,Cambria Math_MSFontService,sans-serif" font-style="normal" font-variant="normal" font-weight="400" font-stretch="normal" font-size="83" text-anchor="start" direction="ltr" writing-mode="lr-tb" unicode-bidi="normal" text-decoration="none" transform="matrix(1 0 0 1 2311.27 1620)">ğ‘·</text><text fill="#C00000" fill-opacity="1" font-family="Cambria Math,Cambria Math_MSFontService,sans-serif" font-style="normal" font-variant="normal" font-weight="400" font-stretch="normal" font-size="60" text-anchor="start" direction="ltr" writing-mode="lr-tb" unicode-bidi="normal" text-decoration="none" transform="matrix(1 0 0 1 2367.99 1644)">ğ’•</text><text fill="#C00000" fill-opacity="1" font-family="Cambria Math,Cambria Math_MSFontService,sans-serif" font-style="normal" font-variant="normal" font-weight="400" font-stretch="normal" font-size="60" text-anchor="start" direction="ltr" writing-mode="lr-tb" unicode-bidi="normal" text-decoration="none" transform="matrix(1 0 0 1 2367.99 1577)">ğ’†ğ’™ğ’‘</text><g filter="url(#fx0)" transform="translate(3482 1328)"><g><g><path d="M26.7075-4.82275C28.0314-4.82275 29.0581-4.93083 29.7876-5.14697 30.5171-5.36312 31.179-5.70085 31.7734-6.16016 32.3678-6.61947 33.023-7.25439 33.739-8.06494 34.455-8.87549 35.1642-9.9292 35.8667-11.2261 36.5692-12.5229 37.2852-14.144 38.0146-16.0894L43.5264-16.0894 39.3926 0 2.31006 0 2.87744-2.6748C4.41748-3.1071 5.55225-3.86361 6.28174-4.94434 7.01123-6.02506 7.70019-8.02441 8.34863-10.9424L15.7246-44.3774C16.0758-45.9715 16.2515-47.5521 16.2515-49.1191 16.2515-50.2539 15.988-51.0847 15.4612-51.6116 14.9343-52.1384 14.0765-52.4829 12.8877-52.645L13.4551-55.3198 33.8403-55.3198 33.2729-52.645C31.7329-52.2127 30.5981-51.4562 29.8687-50.3755 29.1392-49.2948 28.4502-47.2954 27.8018-44.3774L19.0478-4.82275Z" fill="#C00000" fill-rule="nonzero" fill-opacity="1" transform="matrix(1 0 0 1 34.3691 75)"/></g></g></g><path d="M26.7075-4.82275C28.0314-4.82275 29.0581-4.93083 29.7876-5.14697 30.5171-5.36312 31.179-5.70085 31.7734-6.16016 32.3678-6.61947 33.023-7.25439 33.739-8.06494 34.455-8.87549 35.1642-9.9292 35.8667-11.2261 36.5692-12.5229 37.2852-14.144 38.0146-16.0894L43.5264-16.0894 39.3926 0 2.31006 0 2.87744-2.6748C4.41748-3.1071 5.55225-3.86361 6.28174-4.94434 7.01123-6.02506 7.70019-8.02441 8.34863-10.9424L15.7246-44.3774C16.0758-45.9715 16.2515-47.5521 16.2515-49.1191 16.2515-50.2539 15.988-51.0847 15.4612-51.6116 14.9343-52.1384 14.0765-52.4829 12.8877-52.645L13.4551-55.3198 33.8403-55.3198 33.2729-52.645C31.7329-52.2127 30.5981-51.4562 29.8687-50.3755 29.1392-49.2948 28.4502-47.2954 27.8018-44.3774L19.0478-4.82275Z" fill="#C00000" fill-rule="nonzero" fill-opacity="1" transform="matrix(1 0 0 1 3514.45 1401)"/><text fill="#000000" fill-opacity="0" font-family="Arial,Arial_MSFontService,sans-serif" font-size="55.3198" direction="ltr" writing-mode="lr-tb" x="2.31006" y="-6.91498">ğ‘³</text><g filter="url(#fx1)" transform="translate(3537 1368)"><g><g><path d="M22.1191-5.33203C20.1465-3.16406 18.335-1.65527 16.6846-0.805664 15.0342 0.0439453 13.0859 0.46875 10.8398 0.46875 8.61328 0.46875 6.9043-0.102539 5.71289-1.24512 4.52148-2.3877 3.92578-3.96484 3.92578-5.97656 3.92578-6.89453 3.99414-7.76855 4.13086-8.59863 4.26758-9.42871 4.55078-10.791 4.98047-12.6855L7.99805-25.4004 3.42773-25.4004 3.98437-27.7734C5.35156-27.7734 6.38672-27.9004 7.08984-28.1543 7.79297-28.4082 8.38379-28.7891 8.8623-29.2969 9.34082-29.8047 9.80469-30.5762 10.2539-31.6113 10.7031-32.6465 11.2305-34.2383 11.8359-36.3867L18.8672-36.3867 17.168-29.0625 24.2871-29.0625 23.4961-25.4004 16.3184-25.4004 13.4766-13.6816C12.9883-11.6699 12.6514-10.1416 12.4658-9.09668 12.2803-8.05176 12.1875-7.16797 12.1875-6.44531 12.1875-5.52734 12.3535-4.8584 12.6855-4.43848 13.0176-4.01855 13.5059-3.80859 14.1504-3.80859 15.0293-3.80859 15.9326-4.12109 16.8603-4.74609 17.7881-5.37109 18.7891-6.33789 19.8633-7.64648Z" fill="#C00000" fill-rule="nonzero" fill-opacity="1" transform="matrix(1 0 0 1 25.7754 52)"/></g></g></g><path d="M22.1191-5.33203C20.1465-3.16406 18.335-1.65527 16.6846-0.805664 15.0342 0.0439453 13.0859 0.46875 10.8398 0.46875 8.61328 0.46875 6.9043-0.102539 5.71289-1.24512 4.52148-2.3877 3.92578-3.96484 3.92578-5.97656 3.92578-6.89453 3.99414-7.76855 4.13086-8.59863 4.26758-9.42871 4.55078-10.791 4.98047-12.6855L7.99805-25.4004 3.42773-25.4004 3.98437-27.7734C5.35156-27.7734 6.38672-27.9004 7.08984-28.1543 7.79297-28.4082 8.38379-28.7891 8.8623-29.2969 9.34082-29.8047 9.80469-30.5762 10.2539-31.6113 10.7031-32.6465 11.2305-34.2383 11.8359-36.3867L18.8672-36.3867 17.168-29.0625 24.2871-29.0625 23.4961-25.4004 16.3184-25.4004 13.4766-13.6816C12.9883-11.6699 12.6514-10.1416 12.4658-9.09668 12.2803-8.05176 12.1875-7.16797 12.1875-6.44531 12.1875-5.52734 12.3535-4.8584 12.6855-4.43848 13.0176-4.01855 13.5059-3.80859 14.1504-3.80859 15.0293-3.80859 15.9326-4.12109 16.8603-4.74609 17.7881-5.37109 18.7891-6.33789 19.8633-7.64648Z" fill="#C00000" fill-rule="nonzero" fill-opacity="1" transform="matrix(1 0 0 1 3560.85 1418)"/><text fill="#000000" fill-opacity="0" font-family="Arial,Arial_MSFontService,sans-serif" font-size="36.8555" direction="ltr" writing-mode="lr-tb" x="3.42773" y="-4.13818">ğ’•</text><g filter="url(#fx2)" transform="translate(3476 1542)"><g><g><path d="M33.2324-15.0356C33.4486-16.0353 33.5837-16.8661 33.6377-17.5281 33.6917-18.19 33.7187-18.7912 33.7187-19.3315 33.7187-20.4393 33.4621-21.2701 32.9487-21.824 32.4354-22.3778 31.5573-22.7358 30.3145-22.8979L30.8818-25.5728 50.6592-25.5728 50.0918-22.8979C49.0381-22.5467 48.2546-22.1212 47.7412-21.6213 47.2279-21.1215 46.7685-20.392 46.3633-19.4329 45.958-18.4737 45.5122-16.8729 45.0259-14.6304L41.9053-0.648437 36.3125 0.648437 34.1645-2.229C30.6252-0.31071 26.9372 0.648437 23.1006 0.648437 17.4268 0.648437 13.0701-0.945638 10.0305-4.13379 6.99097-7.32194 5.47119-11.9285 5.47119-17.9536 5.47119-21.6821 6.10612-25.9443 7.37598-30.74 8.64583-35.5357 10.6114-39.8586 13.2727-43.7087 15.934-47.5588 19.2775-50.5646 23.3032-52.7261 27.3289-54.8875 31.895-55.9683 37.0015-55.9683 42.7293-55.9683 47.8628-55.1982 52.4019-53.6582L49.9297-42.0674 44.6206-42.0674C44.6206-44.418 44.3707-46.2485 43.8708-47.5588 43.371-48.8692 42.6077-49.8081 41.5811-50.3755 40.5544-50.9429 39.1764-51.2266 37.4473-51.2266 33.8538-51.2266 30.6252-49.5717 27.7612-46.262 24.8973-42.9522 22.4657-38.0889 20.4663-31.6721 18.467-25.2553 17.4673-19.4801 17.4673-14.3467 17.4673-7.51107 19.7233-4.09326 24.2353-4.09326 26.3968-4.09326 28.18-4.77547 29.585-6.13989 30.9899-7.50431 32.0166-9.61849 32.665-12.4824Z" fill="#C00000" fill-rule="nonzero" fill-opacity="1" transform="matrix(1 0 0 1 35.7859 77)"/></g></g></g><path d="M33.2324-15.0356C33.4486-16.0353 33.5837-16.8661 33.6377-17.5281 33.6917-18.19 33.7187-18.7912 33.7187-19.3315 33.7187-20.4393 33.4621-21.2701 32.9487-21.824 32.4354-22.3778 31.5573-22.7358 30.3145-22.8979L30.8818-25.5728 50.6592-25.5728 50.0918-22.8979C49.0381-22.5467 48.2546-22.1212 47.7412-21.6213 47.2279-21.1215 46.7685-20.392 46.3633-19.4329 45.958-18.4737 45.5122-16.8729 45.0259-14.6304L41.9053-0.648437 36.3125 0.648437 34.1645-2.229C30.6252-0.31071 26.9372 0.648437 23.1006 0.648437 17.4268 0.648437 13.0701-0.945638 10.0305-4.13379 6.99097-7.32194 5.47119-11.9285 5.47119-17.9536 5.47119-21.6821 6.10612-25.9443 7.37598-30.74 8.64583-35.5357 10.6114-39.8586 13.2727-43.7087 15.934-47.5588 19.2775-50.5646 23.3032-52.7261 27.3289-54.8875 31.895-55.9683 37.0015-55.9683 42.7293-55.9683 47.8628-55.1982 52.4019-53.6582L49.9297-42.0674 44.6206-42.0674C44.6206-44.418 44.3707-46.2485 43.8708-47.5588 43.371-48.8692 42.6077-49.8081 41.5811-50.3755 40.5544-50.9429 39.1764-51.2266 37.4473-51.2266 33.8538-51.2266 30.6252-49.5717 27.7612-46.262 24.8973-42.9522 22.4657-38.0889 20.4663-31.6721 18.467-25.2553 17.4673-19.4801 17.4673-14.3467 17.4673-7.51107 19.7233-4.09326 24.2353-4.09326 26.3968-4.09326 28.18-4.77547 29.585-6.13989 30.9899-7.50431 32.0166-9.61849 32.665-12.4824Z" fill="#C00000" fill-rule="nonzero" fill-opacity="1" transform="matrix(1 0 0 1 3509.86 1617)"/><text fill="#000000" fill-opacity="0" font-family="Arial,Arial_MSFontService,sans-serif" font-size="56.6167" direction="ltr" writing-mode="lr-tb" x="5.47119" y="-6.42865">ğ‘®</text><g filter="url(#fx3)" transform="translate(3542 1583)"><g><g><path d="M22.1191-5.33203C20.1465-3.16406 18.335-1.65527 16.6846-0.805664 15.0342 0.0439453 13.0859 0.46875 10.8398 0.46875 8.61328 0.46875 6.9043-0.102539 5.71289-1.24512 4.52148-2.3877 3.92578-3.96484 3.92578-5.97656 3.92578-6.89453 3.99414-7.76855 4.13086-8.59863 4.26758-9.42871 4.55078-10.791 4.98047-12.6855L7.99805-25.4004 3.42773-25.4004 3.98437-27.7734C5.35156-27.7734 6.38672-27.9004 7.08984-28.1543 7.79297-28.4082 8.38379-28.7891 8.8623-29.2969 9.34082-29.8047 9.80469-30.5762 10.2539-31.6113 10.7031-32.6465 11.2305-34.2383 11.8359-36.3867L18.8672-36.3867 17.168-29.0625 24.2871-29.0625 23.4961-25.4004 16.3184-25.4004 13.4766-13.6816C12.9883-11.6699 12.6514-10.1416 12.4658-9.09668 12.2803-8.05176 12.1875-7.16797 12.1875-6.44531 12.1875-5.52734 12.3535-4.8584 12.6855-4.43848 13.0176-4.01855 13.5059-3.80859 14.1504-3.80859 15.0293-3.80859 15.9326-4.12109 16.8603-4.74609 17.7881-5.37109 18.7891-6.33789 19.8633-7.64648Z" fill="#C00000" fill-rule="nonzero" fill-opacity="1" transform="matrix(1 0 0 1 25.3586 53)"/></g></g></g><path d="M22.1191-5.33203C20.1465-3.16406 18.335-1.65527 16.6846-0.805664 15.0342 0.0439453 13.0859 0.46875 10.8398 0.46875 8.61328 0.46875 6.9043-0.102539 5.71289-1.24512 4.52148-2.3877 3.92578-3.96484 3.92578-5.97656 3.92578-6.89453 3.99414-7.76855 4.13086-8.59863 4.26758-9.42871 4.55078-10.791 4.98047-12.6855L7.99805-25.4004 3.42773-25.4004 3.98437-27.7734C5.35156-27.7734 6.38672-27.9004 7.08984-28.1543 7.79297-28.4082 8.38379-28.7891 8.8623-29.2969 9.34082-29.8047 9.80469-30.5762 10.2539-31.6113 10.7031-32.6465 11.2305-34.2383 11.8359-36.3867L18.8672-36.3867 17.168-29.0625 24.2871-29.0625 23.4961-25.4004 16.3184-25.4004 13.4766-13.6816C12.9883-11.6699 12.6514-10.1416 12.4658-9.09668 12.2803-8.05176 12.1875-7.16797 12.1875-6.44531 12.1875-5.52734 12.3535-4.8584 12.6855-4.43848 13.0176-4.01855 13.5059-3.80859 14.1504-3.80859 15.0293-3.80859 15.9326-4.12109 16.8603-4.74609 17.7881-5.37109 18.7891-6.33789 19.8633-7.64648Z" fill="#C00000" fill-rule="nonzero" fill-opacity="1" transform="matrix(1 0 0 1 3565.44 1634)"/><text fill="#000000" fill-opacity="0" font-family="Arial,Arial_MSFontService,sans-serif" font-size="36.8555" direction="ltr" writing-mode="lr-tb" x="3.42773" y="-4.13818">ğ’•</text><g><g><g><path d="M151.136 116.118C142.543 114.4 134.184 119.973 132.466 128.566 130.749 137.16 136.322 145.518 144.915 147.236 153.509 148.954 161.867 143.38 163.585 134.787 163.995 132.735 163.995 130.622 163.585 128.569 162.325 122.288 157.417 117.379 151.136 116.118ZM150.726 143.173C144.366 144.651 138.013 140.693 136.535 134.333 136.126 132.572 136.126 130.74 136.535 128.979 137.536 124.603 140.953 121.185 145.328 120.183 151.688 118.704 158.042 122.66 159.521 129.019 159.931 130.783 159.931 132.616 159.52 134.379 158.518 138.754 155.101 142.171 150.726 143.173Z" stroke="#C00000" stroke-width="3.48215" stroke-linecap="butt" stroke-linejoin="miter" stroke-miterlimit="4" stroke-opacity="1" fill="#C00000" fill-rule="nonzero" fill-opacity="1" transform="matrix(1.00513 0 0 1 3649 1277)"/><path d="M128.196 130 90.1042 130C90.1507 130.554 90.1891 131.111 90.1891 131.677 90.1844 132.475 90.1322 133.271 90.0323 134.062L128.268 134.062C128.168 133.271 128.116 132.475 128.111 131.677 128.111 131.111 128.15 130.554 128.196 130Z" stroke="#C00000" stroke-width="3.48215" stroke-linecap="butt" stroke-linejoin="miter" stroke-miterlimit="4" stroke-opacity="1" fill="#C00000" fill-rule="nonzero" fill-opacity="1" transform="matrix(1.00513 0 0 1 3649 1277)"/><path d="M167.341 99.0591 153.405 99.0591C153.376 99.0581 153.352 99.0427 153.323 99.0427L152.672 99.0427C150.878 99.06 149.162 98.3098 147.956 96.9808L125.921 75.1166C123.275 72.4898 119.682 71.0397 115.954 71.0937L67.8407 71.0937C64.1186 71.0722 60.5377 72.517 57.8729 75.1156L36.1887 96.9808C34.8282 98.3157 34.0705 100.147 34.0902 102.053L34.0902 115.781 28.4472 115.781C25.0817 115.781 22.3535 113.053 22.3535 109.687L22.3535 74.9509C27.0786 73.9799 30.472 69.8238 30.4785 65L30.4785 56.875 27.4316 56.875 27.4316 48.75C27.4316 47.6281 26.5222 46.7187 25.4004 46.7187 24.2785 46.7187 23.3691 47.6281 23.3691 48.75L23.3691 56.875 17.2754 56.875 17.2754 48.75C17.2754 47.6281 16.366 46.7187 15.2441 46.7187 14.1223 46.7187 13.2129 47.6281 13.2129 48.75L13.2129 56.875 10.166 56.875 10.166 65C10.1724 69.8238 13.5659 73.9799 18.291 74.9509L18.291 109.687C18.291 115.297 22.8381 119.844 28.4472 119.844L34.0902 119.844 34.0902 120.069C34.1128 127.788 40.3646 134.04 48.0833 134.062L50.5125 134.062C50.4126 133.271 50.3599 132.475 50.3555 131.677 50.3555 131.111 50.3941 130.554 50.4406 130L48.0797 130C42.5971 130 38.1525 125.555 38.1525 120.073L38.1525 103.106 152.682 103.106C152.74 103.106 152.794 103.123 152.852 103.123L167.366 103.123C174.78 103.123 180.791 109.133 180.791 116.547L180.791 127.067C180.79 128.687 179.477 130 177.857 130L167.86 130C167.906 130.554 167.945 131.111 167.945 131.677 167.94 132.475 167.888 133.271 167.788 134.062L177.859 134.062C181.717 134.051 184.842 130.926 184.853 127.068L184.853 116.571C184.825 106.911 177.001 99.0876 167.341 99.0591ZM14.2285 64.7595 14.2285 60.9375 26.416 60.9375 26.416 65C26.4117 68.3708 23.6754 71.1 20.3046 71.0955 19.9027 71.0951 19.5018 71.0549 19.1078 70.9755 16.213 70.3229 14.1749 67.7265 14.2285 64.7595ZM123.06 78 144.265 99.0437 91.416 99.0437 91.416 75.1562 115.953 75.1562C118.61 75.1018 121.175 76.128 123.06 78ZM60.7457 77.9886C62.6462 76.1481 65.1952 75.1306 67.8407 75.1562L87.3535 75.1562 87.3535 99.0437 39.914 99.0437C39.8872 99.0437 39.8807 99.0283 39.8996 99.0092Z" stroke="#C00000" stroke-width="3.48215" stroke-linecap="butt" stroke-linejoin="miter" stroke-miterlimit="4" stroke-opacity="1" fill="#C00000" fill-rule="nonzero" fill-opacity="1" transform="matrix(1.00513 0 0 1 3649 1277)"/><path d="M73.3797 116.118C64.7865 114.4 56.4279 119.974 54.7103 128.567 52.9926 137.16 58.5664 145.519 67.1596 147.236 75.7528 148.954 84.1114 143.38 85.829 134.787 86.2391 132.735 86.2393 130.622 85.8294 128.569 84.5692 122.288 79.6603 117.379 73.3797 116.118ZM72.97 143.173C66.6103 144.651 60.2568 140.693 58.7791 134.334 58.3696 132.572 58.3698 130.74 58.7797 128.979 59.7807 124.603 63.197 121.186 67.5725 120.183 73.932 118.704 80.2861 122.661 81.7649 129.02 82.175 130.783 82.1746 132.617 81.7641 134.38 80.7617 138.755 77.3451 142.171 72.97 143.173Z" stroke="#C00000" stroke-width="3.48215" stroke-linecap="butt" stroke-linejoin="miter" stroke-miterlimit="4" stroke-opacity="1" fill="#C00000" fill-rule="nonzero" fill-opacity="1" transform="matrix(1.00513 0 0 1 3649 1277)"/></g></g></g><g><g><g><path d="M3762.58 1517.91 3766.01 1517.91 3766.01 1536.81 3762.58 1536.81Z" stroke="#C00000" stroke-width="3.4375" stroke-linecap="butt" stroke-linejoin="miter" stroke-miterlimit="4" stroke-opacity="1" fill="#C00000" fill-rule="nonzero" fill-opacity="1"/><path d="M3796.95 1567.75 3815.86 1567.75 3815.86 1571.19 3796.95 1571.19Z" stroke="#C00000" stroke-width="3.4375" stroke-linecap="butt" stroke-linejoin="miter" stroke-miterlimit="4" stroke-opacity="1" fill="#C00000" fill-rule="nonzero" fill-opacity="1"/><path d="M3712.73 1567.75 3731.64 1567.75 3731.64 1571.19 3712.73 1571.19Z" stroke="#C00000" stroke-width="3.4375" stroke-linecap="butt" stroke-linejoin="miter" stroke-miterlimit="4" stroke-opacity="1" fill="#C00000" fill-rule="nonzero" fill-opacity="1"/><path d="M3786.17 1593.77 3788.6 1591.34 3801.97 1604.71 3799.54 1607.14Z" stroke="#C00000" stroke-width="3.4375" stroke-linecap="butt" stroke-linejoin="miter" stroke-miterlimit="4" stroke-opacity="1" fill="#C00000" fill-rule="nonzero" fill-opacity="1"/><path d="M3726.62 1534.22 3729.05 1531.79 3742.42 1545.16 3739.99 1547.59Z" stroke="#C00000" stroke-width="3.4375" stroke-linecap="butt" stroke-linejoin="miter" stroke-miterlimit="4" stroke-opacity="1" fill="#C00000" fill-rule="nonzero" fill-opacity="1"/><path d="M3786.17 1545.16 3799.54 1531.79 3801.97 1534.22 3788.6 1547.59Z" stroke="#C00000" stroke-width="3.4375" stroke-linecap="butt" stroke-linejoin="miter" stroke-miterlimit="4" stroke-opacity="1" fill="#C00000" fill-rule="nonzero" fill-opacity="1"/><path d="M3763.5 1543.7C3750.3 1544.21 3739.57 1554.54 3738.57 1567.71 3738.35 1570.99 3738.75 1574.27 3739.77 1577.39 3741.66 1578.38 3743.45 1579.56 3745.1 1580.91 3745.14 1580.94 3745.15 1580.93 3745.13 1580.89 3742.51 1576.55 3741.47 1571.45 3742.16 1566.43 3743.82 1554.21 3755.08 1545.64 3767.31 1547.3 3779.54 1548.97 3788.1 1560.23 3786.44 1572.46 3785.2 1581.55 3778.52 1588.97 3769.6 1591.15 3770.73 1591.94 3771.79 1592.83 3772.78 1593.79 3786.22 1589.11 3793.32 1574.42 3788.64 1560.98 3784.94 1550.35 3774.76 1543.35 3763.5 1543.7Z" stroke="#C00000" stroke-width="3.4375" stroke-linecap="butt" stroke-linejoin="miter" stroke-miterlimit="4" stroke-opacity="1" fill="#C00000" fill-rule="nonzero" fill-opacity="1"/><path d="M3695.18 1647.54 3777.7 1647.71 3777.72 1647.71C3787.63 1647.47 3795.47 1639.25 3795.23 1629.34 3795.23 1629.26 3795.22 1629.19 3795.22 1629.11 3794.87 1619.31 3786.79 1611.55 3776.98 1611.61 3776.98 1611.61 3776.05 1611.61 3775.73 1611.62 3774.75 1600.01 3765.09 1591.06 3753.44 1590.97 3751.52 1590.97 3749.6 1591.22 3747.74 1591.7 3740.06 1579.12 3723.64 1575.16 3711.06 1582.84 3703.88 1587.22 3699.19 1594.74 3698.4 1603.11 3697.7 1603.04 3697 1603.01 3696.3 1603.01 3689.52 1603.05 3683.11 1606.14 3678.87 1611.42 3673.84 1617.97 3672.78 1626.74 3676.08 1634.31 3679.46 1641.95 3686.84 1647.06 3695.18 1647.54ZM3681.55 1613.57C3685.15 1609.1 3690.56 1606.48 3696.3 1606.45 3696.89 1606.45 3697.49 1606.48 3698.07 1606.53L3701.48 1606.87 3701.82 1603.46C3702.74 1593.56 3709.85 1585.34 3719.52 1583.01 3729.33 1580.58 3739.58 1584.82 3744.8 1593.48L3746.12 1595.67 3748.6 1595.03C3750.18 1594.62 3751.81 1594.41 3753.44 1594.41 3757.41 1594.39 3761.27 1595.66 3764.46 1598.03L3764.51 1598.07 3764.56 1598.1C3769.1 1601.28 3771.95 1606.35 3772.31 1611.87L3772.55 1615.12 3776.98 1615.04C3784.95 1614.99 3791.51 1621.28 3791.78 1629.24 3791.94 1633.14 3790.51 1636.93 3787.82 1639.75 3785.2 1642.56 3781.55 1644.19 3777.71 1644.28L3695.3 1644.1C3688.27 1643.66 3682.07 1639.34 3679.21 1632.9 3676.42 1626.51 3677.32 1619.11 3681.55 1613.57Z" stroke="#C00000" stroke-width="3.4375" stroke-linecap="butt" stroke-linejoin="miter" stroke-miterlimit="4" stroke-opacity="1" fill="#C00000" fill-rule="nonzero" fill-opacity="1"/></g></g></g><g><g><g><path d="M2221.18 1456.64C2222.28 1456.64 2223.17 1455.74 2223.17 1454.65L2223.17 1444.7C2223.17 1443.92 2222.71 1443.21 2222 1442.89L2178.23 1422.99C2177.97 1422.87 2177.69 1422.81 2177.41 1422.81L2176.32 1422.81 2175.4 1414.63C2175.37 1414.3 2175.25 1413.99 2175.06 1413.71L2161.13 1393.82C2160.5 1392.92 2159.26 1392.7 2158.36 1393.33 2158.17 1393.46 2158 1393.63 2157.87 1393.82L2143.94 1413.71C2143.75 1413.99 2143.63 1414.3 2143.59 1414.63L2142.68 1422.81 2141.59 1422.81C2141.31 1422.81 2141.03 1422.87 2140.77 1422.99L2097 1442.89C2096.29 1443.21 2095.83 1443.92 2095.83 1444.7L2095.83 1454.65C2095.83 1455.74 2096.72 1456.64 2097.82 1456.64 2098.92 1456.64 2099.81 1455.74 2099.81 1454.65L2099.81 1446.69 2140 1446.69 2137.57 1468.21 2097 1486.66C2096.29 1486.98 2095.83 1487.69 2095.83 1488.47L2095.83 1498.42C2095.83 1499.52 2096.72 1500.41 2097.82 1500.41 2098.92 1500.41 2099.81 1499.52 2099.81 1498.42L2099.81 1490.46 2135.08 1490.46 2133.68 1502.9 2107.27 1568.99C2106.86 1570.01 2107.36 1571.17 2108.38 1571.57 2108.61 1571.67 2108.86 1571.72 2109.11 1571.72 2109.38 1571.72 2109.65 1571.66 2109.89 1571.56L2159.39 1550.45 2209.19 1571.7C2210.2 1572.13 2211.37 1571.66 2211.8 1570.65 2212 1570.17 2212.01 1569.62 2211.81 1569.13L2185.32 1502.9 2183.92 1490.46 2219.19 1490.46 2219.19 1498.42C2219.19 1499.52 2220.08 1500.41 2221.18 1500.41 2222.28 1500.41 2223.17 1499.52 2223.17 1498.42L2223.17 1488.47C2223.17 1487.69 2222.71 1486.98 2222 1486.66L2181.43 1468.21 2179 1446.69 2219.19 1446.69 2219.19 1454.65C2219.19 1455.74 2220.08 1456.64 2221.18 1456.64ZM2147.49 1415.58 2159.48 1398.45C2159.49 1398.44 2159.5 1398.44 2159.51 1398.44 2159.51 1398.45 2159.51 1398.45 2159.52 1398.45L2171.51 1415.58 2172.32 1422.81 2146.68 1422.81ZM2172.77 1426.79 2174.56 1442.71 2144.44 1442.71 2146.24 1426.79ZM2107.1 1442.71C2107.05 1442.71 2107.04 1442.69 2107.1 1442.67L2142.03 1426.79 2142.22 1426.79 2140.43 1442.71ZM2107.1 1486.44 2137.06 1472.82 2135.52 1486.48 2107.1 1486.48C2107.05 1486.48 2107.04 1486.46 2107.09 1486.44ZM2141.29 1470.9 2142.03 1470.56 2176.97 1470.56 2177.72 1470.9 2179.47 1486.48 2139.53 1486.48ZM2182.67 1506.96 2190.73 1527.12 2164.27 1515.22ZM2191.33 1531.75C2191.74 1531.94 2192.19 1531.98 2192.62 1531.86L2192.68 1532C2192.57 1532.01 2192.47 1532.04 2192.36 1532.07L2159.39 1546.12 2126.46 1532.07C2126.41 1532.05 2126.37 1532.05 2126.32 1532.04L2126.38 1531.89C2126.48 1531.91 2126.57 1531.92 2126.67 1531.93 2126.95 1531.93 2127.23 1531.87 2127.49 1531.75L2159.41 1517.41ZM2128.33 1527.02 2136.32 1507.03 2154.56 1515.22ZM2112.78 1566C2112.76 1566 2112.75 1566 2112.76 1565.97L2124.86 1535.7C2124.87 1535.7 2124.88 1535.72 2124.9 1535.73L2154.33 1548.29ZM2164.47 1548.29 2193.92 1535.73C2193.99 1535.69 2194.05 1535.64 2194.12 1535.6L2206.33 1566.11C2206.33 1566.14 2206.33 1566.15 2206.3 1566.14ZM2181.35 1503.19 2159.41 1513.04 2137.64 1503.26 2139.08 1490.46 2179.92 1490.46ZM2211.9 1486.48 2183.48 1486.48 2181.94 1472.82 2211.91 1486.44C2211.96 1486.46 2211.95 1486.48 2211.9 1486.48ZM2177.24 1466.58 2141.76 1466.58 2144 1446.69 2175 1446.69ZM2176.77 1426.79 2176.97 1426.79 2211.9 1442.67C2211.95 1442.69 2211.95 1442.71 2211.9 1442.71L2178.56 1442.71Z" stroke="#C00000" stroke-width="3.47272" stroke-linecap="butt" stroke-linejoin="miter" stroke-miterlimit="4" stroke-opacity="1" fill="#C00000" fill-rule="nonzero" fill-opacity="1"/></g></g></g><path d="M2743.85 1598.5C2838.89 1598.29 2920.74 1643.13 2938.87 1705.33" stroke="#C00000" stroke-width="6.875" stroke-linecap="butt" stroke-linejoin="miter" stroke-miterlimit="8" stroke-opacity="1" fill="none" fill-rule="evenodd"/><path d="M197.445-3.43535 215.2-2.95035 232.673-1.43528 249.689 1.06679 266.176 4.51587 282.059 8.87236 297.266 14.0971 311.723 20.1516 325.357 26.9978 338.094 34.5984 349.859 42.9168 360.577 51.9171 370.17 61.5637 378.614 71.8878 385.851 84.2273 379.921 87.7053 372.819 75.5963 373.124 76.0336 364.954 66.0456 365.178 66.2932 355.811 56.8743 356.038 57.0828 345.547 48.2736 345.773 48.4479 334.233 40.2888 334.456 40.4339 321.941 32.9655 322.16 33.0856 308.743 26.3486 308.958 26.4473 294.714 20.4821 294.925 20.5624 279.928 15.4096 280.136 15.4737 264.459 11.1739 264.665 11.2235 248.383 7.81731 248.587 7.85359 231.774 5.38147 231.977 5.40519 214.707 3.90774 214.91 3.9193 197.257 3.43708ZM393.508 76.1051 392.367 106.83 368.472 87.4821Z" fill="#C00000" fill-rule="nonzero" fill-opacity="1" transform="matrix(-1 0 0 1 3466.5 1598.5)"/><path d="M2740.45 1380.06 2758.15 1380.55 2775.58 1382.06 2792.55 1384.55 2808.99 1387.98 2824.83 1392.32 2840 1397.53 2854.42 1403.56 2868.02 1410.37 2880.72 1417.94 2892.46 1426.23 2903.15 1435.19 2912.72 1444.8 2921.15 1455.08 2928.32 1467.3 2922.39 1470.78 2915.35 1458.8 2915.66 1459.23 2907.51 1449.29 2907.73 1449.53 2898.39 1440.15 2898.62 1440.36 2888.15 1431.59 2888.38 1431.76 2876.87 1423.64 2877.09 1423.78 2864.61 1416.34 2864.83 1416.46 2851.45 1409.75 2851.66 1409.85 2837.45 1403.91 2837.66 1403.99 2822.71 1398.86 2822.91 1398.92 2807.28 1394.64 2807.48 1394.69 2791.25 1391.3 2791.45 1391.34 2774.68 1388.87 2774.89 1388.9 2757.66 1387.41 2757.86 1387.42 2740.26 1386.94ZM2935.97 1459.17 2934.87 1489.89 2910.95 1470.58Z" fill="#C00000" fill-rule="nonzero" fill-opacity="1"/><path d="M196.854 0.000863955C291.635-0.205602 373.272 44.4478 391.367 106.395" stroke="#C00000" stroke-width="6.875" stroke-linecap="butt" stroke-linejoin="miter" stroke-miterlimit="8" stroke-opacity="1" fill="none" fill-rule="evenodd" transform="matrix(-1 0 0 1 3462.5 1383.5)"/><text fill="#C00000" fill-opacity="1" font-family="Cambria Math,Cambria Math_MSFontService,sans-serif" font-style="normal" font-variant="normal" font-weight="400" font-stretch="normal" font-size="83" text-anchor="start" direction="ltr" writing-mode="lr-tb" unicode-bidi="normal" text-decoration="none" transform="matrix(1 0 0 1 2696.45 1481)">ğ’™</text><text fill="#C00000" fill-opacity="1" font-family="Cambria Math,Cambria Math_MSFontService,sans-serif" font-style="normal" font-variant="normal" font-weight="400" font-stretch="normal" font-size="60" text-anchor="start" direction="ltr" writing-mode="lr-tb" unicode-bidi="normal" text-decoration="none" transform="matrix(1 0 0 1 2744 1499)">ğ’•</text><text fill="#C00000" fill-opacity="1" font-family="Cambria Math,Cambria Math_MSFontService,sans-serif" font-style="normal" font-variant="normal" font-weight="400" font-stretch="normal" font-size="60" text-anchor="start" direction="ltr" writing-mode="lr-tb" unicode-bidi="normal" text-decoration="none" transform="matrix(1 0 0 1 2744 1450)">ğ’„ğ’‰</text><text fill="#C00000" fill-opacity="1" font-family="Cambria Math,Cambria Math_MSFontService,sans-serif" font-style="normal" font-variant="normal" font-weight="400" font-stretch="normal" font-size="83" text-anchor="start" direction="ltr" writing-mode="lr-tb" unicode-bidi="normal" text-decoration="none" transform="matrix(1 0 0 1 3196.2 1696)">ğ’™</text><text fill="#C00000" fill-opacity="1" font-family="Cambria Math,Cambria Math_MSFontService,sans-serif" font-style="normal" font-variant="normal" font-weight="400" font-stretch="normal" font-size="60" text-anchor="start" direction="ltr" writing-mode="lr-tb" unicode-bidi="normal" text-decoration="none" transform="matrix(1 0 0 1 3243.76 1714)">ğ’•</text><text fill="#C00000" fill-opacity="1" font-family="Cambria Math,Cambria Math_MSFontService,sans-serif" font-style="normal" font-variant="normal" font-weight="400" font-stretch="normal" font-size="60" text-anchor="start" direction="ltr" writing-mode="lr-tb" unicode-bidi="normal" text-decoration="none" transform="matrix(1 0 0 1 3243.76 1665)">ğ’„ğ’‰</text><text fill="#C00000" fill-opacity="1" font-family="Cambria Math,Cambria Math_MSFontService,sans-serif" font-style="normal" font-variant="normal" font-weight="400" font-stretch="normal" font-size="83" text-anchor="start" direction="ltr" writing-mode="lr-tb" unicode-bidi="normal" text-decoration="none" transform="matrix(1 0 0 1 3184.47 1481)">ğ’™</text><text fill="#C00000" fill-opacity="1" font-family="Cambria Math,Cambria Math_MSFontService,sans-serif" font-style="normal" font-variant="normal" font-weight="400" font-stretch="normal" font-size="60" text-anchor="start" direction="ltr" writing-mode="lr-tb" unicode-bidi="normal" text-decoration="none" transform="matrix(1 0 0 1 3232.02 1499)">ğ’•</text><text fill="#C00000" fill-opacity="1" font-family="Cambria Math,Cambria Math_MSFontService,sans-serif" font-style="normal" font-variant="normal" font-weight="400" font-stretch="normal" font-size="60" text-anchor="start" direction="ltr" writing-mode="lr-tb" unicode-bidi="normal" text-decoration="none" transform="matrix(1 0 0 1 3232.02 1450)">ğ’…ğ’Šğ’”</text><text fill="#C00000" fill-opacity="1" font-family="Cambria Math,Cambria Math_MSFontService,sans-serif" font-style="normal" font-variant="normal" font-weight="400" font-stretch="normal" font-size="83" text-anchor="start" direction="ltr" writing-mode="lr-tb" unicode-bidi="normal" text-decoration="none" transform="matrix(1 0 0 1 2684.72 1696)">ğ’™</text><text fill="#C00000" fill-opacity="1" font-family="Cambria Math,Cambria Math_MSFontService,sans-serif" font-style="normal" font-variant="normal" font-weight="400" font-stretch="normal" font-size="60" text-anchor="start" direction="ltr" writing-mode="lr-tb" unicode-bidi="normal" text-decoration="none" transform="matrix(1 0 0 1 2732.27 1714)">ğ’•</text><text fill="#C00000" fill-opacity="1" font-family="Cambria Math,Cambria Math_MSFontService,sans-serif" font-style="normal" font-variant="normal" font-weight="400" font-stretch="normal" font-size="60" text-anchor="start" direction="ltr" writing-mode="lr-tb" unicode-bidi="normal" text-decoration="none" transform="matrix(1 0 0 1 2732.27 1665)">ğ’…ğ’Šğ’”</text></g></g></svg>