<svg width="1783" height="482" xmlns="http://www.w3.org/2000/svg" xmlns:xlink="http://www.w3.org/1999/xlink" xml:space="preserve" overflow="hidden"><defs><clipPath id="clip0"><rect x="2076" y="682" width="1783" height="482"/></clipPath><clipPath id="clip1"><rect x="2076" y="682" width="1783" height="482"/></clipPath><clipPath id="clip2"><rect x="3661" y="718" width="196" height="195"/></clipPath><clipPath id="clip3"><rect x="3661" y="718" width="196" height="195"/></clipPath><clipPath id="clip4"><rect x="3678" y="939" width="166" height="166"/></clipPath><clipPath id="clip5"><rect x="3678" y="939" width="166" height="166"/></clipPath></defs><g clip-path="url(#clip0)" transform="translate(-2076 -682)"><g clip-path="url(#clip1)"><path d="M2760.5 767.335C2760.5 724.348 2795.35 689.5 2838.34 689.5L3199.67 689.5C3242.65 689.5 3277.5 724.348 3277.5 767.335L3277.5 1078.66C3277.5 1121.65 3242.65 1156.5 3199.67 1156.5L2838.34 1156.5C2795.35 1156.5 2760.5 1121.65 2760.5 1078.66Z" stroke="#C00000" stroke-width="6.875" stroke-linecap="butt" stroke-linejoin="miter" stroke-miterlimit="8" stroke-opacity="1" fill="none" fill-rule="evenodd"/><text fill="#C00000" fill-opacity="1" font-family="Aptos,Aptos_MSFontService,sans-serif" font-style="normal" font-variant="normal" font-weight="400" font-stretch="normal" font-size="83" text-anchor="start" direction="ltr" writing-mode="lr-tb" unicode-bidi="normal" text-decoration="none" transform="matrix(1 0 0 1 2890.56 949)">Battery</text><path d="M2556.5 820.063 2731.58 820.063 2731.58 826.938 2556.5 826.938ZM2727 809.75 2754.5 823.5 2727 837.25Z" fill="#C00000" fill-rule="nonzero" fill-opacity="1"/><path d="M2580.42 1036.06 2755.5 1036.06 2755.5 1042.94 2580.42 1042.94ZM2585 1053.25 2557.5 1039.5 2585 1025.75Z" fill="#C00000" fill-rule="nonzero" fill-opacity="1"/><text fill="#C00000" fill-opacity="1" font-family="Cambria Math,Cambria Math_MSFontService,sans-serif" font-style="normal" font-variant="normal" font-weight="400" font-stretch="normal" font-size="83" text-anchor="start" direction="ltr" writing-mode="lr-tb" unicode-bidi="normal" text-decoration="none" transform="matrix(1 0 0 1 2320.24 856)">ğ‘·</text><text fill="#C00000" fill-opacity="1" font-family="Cambria Math,Cambria Math_MSFontService,sans-serif" font-style="normal" font-variant="normal" font-weight="400" font-stretch="normal" font-size="60" text-anchor="start" direction="ltr" writing-mode="lr-tb" unicode-bidi="normal" text-decoration="none" transform="matrix(1 0 0 1 2376.96 880)">ğ’•</text><text fill="#C00000" fill-opacity="1" font-family="Cambria Math,Cambria Math_MSFontService,sans-serif" font-style="normal" font-variant="normal" font-weight="400" font-stretch="normal" font-size="60" text-anchor="start" direction="ltr" writing-mode="lr-tb" unicode-bidi="normal" text-decoration="none" transform="matrix(1 0 0 1 2376.96 812)">ğ’Šğ’ğ’‘</text><text fill="#C00000" fill-opacity="1" font-family="Cambria Math,Cambria Math_MSFontService,sans-serif" font-style="normal" font-variant="normal" font-weight="400" font-stretch="normal" font-size="83" text-anchor="start" direction="ltr" writing-mode="lr-tb" unicode-bidi="normal" text-decoration="none" transform="matrix(1 0 0 1 2325.12 1061)">ğ‘·</text><text fill="#C00000" fill-opacity="1" font-family="Cambria Math,Cambria Math_MSFontService,sans-serif" font-style="normal" font-variant="normal" font-weight="400" font-stretch="normal" font-size="60" text-anchor="start" direction="ltr" writing-mode="lr-tb" unicode-bidi="normal" text-decoration="none" transform="matrix(1 0 0 1 2381.84 1085)">ğ’•</text><text fill="#C00000" fill-opacity="1" font-family="Cambria Math,Cambria Math_MSFontService,sans-serif" font-style="normal" font-variant="normal" font-weight="400" font-stretch="normal" font-size="60" text-anchor="start" direction="ltr" writing-mode="lr-tb" unicode-bidi="normal" text-decoration="none" transform="matrix(1 0 0 1 2381.84 1017)">ğ’†ğ’™ğ’‘</text><g><g><g><path d="M157.177 69.6353C158.276 69.6353 159.166 68.7446 159.166 67.6458L159.166 57.6978C159.167 56.9173 158.711 56.2084 158.001 55.8853L114.23 35.9895C113.971 35.8715 113.69 35.8111 113.406 35.8125L112.324 35.8125 111.405 27.6313C111.367 27.3012 111.247 26.9861 111.056 26.7141L97.1294 6.81829C96.4989 5.91837 95.2582 5.69995 94.3583 6.33043 94.1685 6.46341 94.0033 6.62851 93.8704 6.81829L79.9434 26.7141C79.7525 26.9861 79.6328 27.3012 79.5952 27.6313L78.676 35.8125 77.5937 35.8125C77.3093 35.8117 77.0282 35.8729 76.77 35.9915L32.9992 55.8873C32.2893 56.2102 31.8335 56.9179 31.8333 57.6978L31.8333 67.6458C31.8333 68.7446 32.724 69.6353 33.8229 69.6353 34.9217 69.6353 35.8125 68.7446 35.8125 67.6458L35.8125 59.6874 76.002 59.6874 73.5747 81.2147 32.9992 99.6581C32.2893 99.981 31.8335 100.689 31.8333 101.469L31.8333 111.417C31.8333 112.515 32.724 113.406 33.8229 113.406 34.9217 113.406 35.8125 112.515 35.8125 111.417L35.8125 103.458 71.0758 103.458 69.6831 115.899 43.2674 181.989C42.8598 183.009 43.3565 184.167 44.3768 184.575 44.6112 184.668 44.8613 184.716 45.1137 184.717 45.3817 184.716 45.647 184.662 45.8937 184.558L95.3944 163.45 145.186 184.701C146.196 185.132 147.365 184.662 147.796 183.652 148.003 183.167 148.009 182.621 147.814 182.132L121.321 115.899 119.924 103.458 155.187 103.458 155.187 111.417C155.187 112.515 156.078 113.406 157.177 113.406 158.276 113.406 159.166 112.515 159.166 111.417L159.166 101.469C159.166 100.689 158.71 99.981 158.001 99.6581L117.425 81.2147 114.998 59.6874 155.187 59.6874 155.187 67.6458C155.187 68.7446 156.078 69.6353 157.177 69.6353ZM83.4928 28.5803 95.484 11.452C95.4885 11.4432 95.4993 11.4398 95.508 11.4443 95.5114 11.446 95.514 11.4487 95.5158 11.452L107.507 28.5803 108.319 35.8125 82.681 35.8125ZM108.766 39.7916 110.557 55.7083 80.4447 55.7083 82.2354 39.7916ZM43.0983 55.7083C43.0486 55.7083 43.0446 55.6904 43.0983 55.6705L78.0254 39.7916 78.2244 39.7916 76.4337 55.7083ZM43.0983 99.4412 73.0574 85.8206 71.5235 99.479 43.0983 99.479C43.0486 99.479 43.0446 99.4611 43.0903 99.4412ZM77.2853 83.9026 78.0254 83.5624 112.974 83.5624 113.722 83.9026 115.473 99.479 75.5265 99.479ZM118.669 119.958 126.732 140.116 100.271 128.225ZM127.333 144.754C127.736 144.942 128.192 144.98 128.62 144.861L128.676 145.001C128.57 145.014 128.466 145.035 128.364 145.066L95.3944 159.125 62.4589 145.066C62.4132 145.054 62.3666 145.045 62.3196 145.038L62.3793 144.887C62.4756 144.908 62.5735 144.922 62.6718 144.929 62.9529 144.928 63.2309 144.869 63.4875 144.754L95.4104 130.407ZM64.3271 140.015 72.3153 120.027 90.5558 128.225ZM48.7825 178.999C48.7587 178.999 48.7467 178.999 48.7567 178.973L60.8553 148.699C60.8712 148.699 60.8812 148.721 60.8951 148.727L90.327 161.285ZM100.466 161.291 129.92 148.727C129.988 148.687 130.055 148.643 130.119 148.596L142.327 179.114C142.327 179.14 142.327 179.152 142.299 179.14ZM117.349 116.192 95.4104 126.044 73.6423 116.259 75.0808 103.458 115.919 103.458ZM147.901 99.479 119.476 99.479 117.942 85.8206 147.909 99.4412C147.955 99.4611 147.951 99.479 147.901 99.479ZM113.237 79.5832 77.7628 79.5832 79.9991 59.6874 111.001 59.6874ZM112.769 39.7916 112.968 39.7916 147.903 55.6705C147.949 55.6904 147.945 55.7083 147.903 55.7083L114.558 55.7083Z" stroke="#C00000" stroke-width="3.47271" stroke-linecap="butt" stroke-linejoin="miter" stroke-miterlimit="4" stroke-opacity="1" fill="#C00000" fill-rule="nonzero" fill-opacity="1" transform="matrix(1 0 0 1 2078 827)"/></g></g></g><g clip-path="url(#clip2)"><g clip-path="url(#clip3)"></g></g><g clip-path="url(#clip4)"><g clip-path="url(#clip5)"></g></g><text fill="#C00000" fill-opacity="1" font-family="Cambria Math,Cambria Math_MSFontService,sans-serif" font-style="normal" font-variant="normal" font-weight="400" font-stretch="normal" font-size="83" text-anchor="start" direction="ltr" writing-mode="lr-tb" unicode-bidi="normal" text-decoration="none" transform="matrix(1 0 0 1 2596.09 785)">ğ’™</text><text fill="#C00000" fill-opacity="1" font-family="Cambria Math,Cambria Math_MSFontService,sans-serif" font-style="normal" font-variant="normal" font-weight="400" font-stretch="normal" font-size="60" text-anchor="start" direction="ltr" writing-mode="lr-tb" unicode-bidi="normal" text-decoration="none" transform="matrix(1 0 0 1 2643.64 803)">ğ’•</text><text fill="#C00000" fill-opacity="1" font-family="Cambria Math,Cambria Math_MSFontService,sans-serif" font-style="normal" font-variant="normal" font-weight="400" font-stretch="normal" font-size="60" text-anchor="start" direction="ltr" writing-mode="lr-tb" unicode-bidi="normal" text-decoration="none" transform="matrix(1 0 0 1 2643.64 754)">ğ’„ğ’‰</text><text fill="#C00000" fill-opacity="1" font-family="Cambria Math,Cambria Math_MSFontService,sans-serif" font-style="normal" font-variant="normal" font-weight="400" font-stretch="normal" font-size="83" text-anchor="start" direction="ltr" writing-mode="lr-tb" unicode-bidi="normal" text-decoration="none" transform="matrix(1 0 0 1 2584.36 1005)">ğ’™</text><text fill="#C00000" fill-opacity="1" font-family="Cambria Math,Cambria Math_MSFontService,sans-serif" font-style="normal" font-variant="normal" font-weight="400" font-stretch="normal" font-size="60" text-anchor="start" direction="ltr" writing-mode="lr-tb" unicode-bidi="normal" text-decoration="none" transform="matrix(1 0 0 1 2631.91 1023)">ğ’•</text><text fill="#C00000" fill-opacity="1" font-family="Cambria Math,Cambria Math_MSFontService,sans-serif" font-style="normal" font-variant="normal" font-weight="400" font-stretch="normal" font-size="60" text-anchor="start" direction="ltr" writing-mode="lr-tb" unicode-bidi="normal" text-decoration="none" transform="matrix(1 0 0 1 2631.91 974)">ğ’…ğ’Šğ’”</text></g></g></svg>