<svg width="1783" height="476" xmlns="http://www.w3.org/2000/svg" xmlns:xlink="http://www.w3.org/1999/xlink" xml:space="preserve" overflow="hidden"><defs><filter id="fx0" x="-10%" y="-10%" width="120%" height="120%" filterUnits="userSpaceOnUse" primitiveUnits="userSpaceOnUse"><feComponentTransfer color-interpolation-filters="sRGB"><feFuncR type="discrete" tableValues="0.000000 0.000000"/><feFuncG type="discrete" tableValues="0.000000 0.000000"/><feFuncB type="discrete" tableValues="0.000000 0.000000"/><feFuncA type="linear" slope="0.400000" intercept="0.000000"/></feComponentTransfer><feGaussianBlur stdDeviation="1.725431 1.725431"/></filter><filter id="fx1" x="-10%" y="-10%" width="120%" height="120%" filterUnits="userSpaceOnUse" primitiveUnits="userSpaceOnUse"><feComponentTransfer color-interpolation-filters="sRGB"><feFuncR type="discrete" tableValues="0.000000 0.000000"/><feFuncG type="discrete" tableValues="0.000000 0.000000"/><feFuncB type="discrete" tableValues="0.000000 0.000000"/><feFuncA type="linear" slope="0.400000" intercept="0.000000"/></feComponentTransfer><feGaussianBlur stdDeviation="1.725431 1.725431"/></filter><filter id="fx2" x="-10%" y="-10%" width="120%" height="120%" filterUnits="userSpaceOnUse" primitiveUnits="userSpaceOnUse"><feComponentTransfer color-interpolation-filters="sRGB"><feFuncR type="discrete" tableValues="0.000000 0.000000"/><feFuncG type="discrete" tableValues="0.000000 0.000000"/><feFuncB type="discrete" tableValues="0.000000 0.000000"/><feFuncA type="linear" slope="0.400000" intercept="0.000000"/></feComponentTransfer><feGaussianBlur stdDeviation="1.725431 1.725431"/></filter><filter id="fx3" x="-10%" y="-10%" width="120%" height="120%" filterUnits="userSpaceOnUse" primitiveUnits="userSpaceOnUse"><feComponentTransfer color-interpolation-filters="sRGB"><feFuncR type="discrete" tableValues="0.000000 0.000000"/><feFuncG type="discrete" tableValues="0.000000 0.000000"/><feFuncB type="discrete" tableValues="0.000000 0.000000"/><feFuncA type="linear" slope="0.400000" intercept="0.000000"/></feComponentTransfer><feGaussianBlur stdDeviation="1.725431 1.725431"/></filter><clipPath id="clip4"><rect x="2071" y="495" width="1783" height="476"/></clipPath><clipPath id="clip5"><rect x="2071" y="495" width="1783" height="476"/></clipPath><clipPath id="clip6"><rect x="3657" y="539" width="197" height="196"/></clipPath><clipPath id="clip7"><rect x="3657" y="539" width="197" height="196"/></clipPath><clipPath id="clip8"><rect x="3674" y="761" width="165" height="166"/></clipPath><clipPath id="clip9"><rect x="3674" y="761" width="165" height="166"/></clipPath></defs><g clip-path="url(#clip4)" transform="translate(-2071 -495)"><g clip-path="url(#clip5)"><path d="M2552.5 630.063 2727.58 630.063 2727.58 636.938 2552.5 636.938ZM2723 619.75 2750.5 633.5 2723 647.25Z" fill="#C00000" fill-rule="nonzero" fill-opacity="1"/><path d="M2575.42 846.062 2750.5 846.063 2750.5 852.938 2575.42 852.937ZM2580 863.25 2552.5 849.5 2580 835.75Z" fill="#C00000" fill-rule="nonzero" fill-opacity="1"/><text fill="#C00000" fill-opacity="1" font-family="Cambria Math,Cambria Math_MSFontService,sans-serif" font-style="normal" font-variant="normal" font-weight="400" font-stretch="normal" font-size="83" text-anchor="start" direction="ltr" writing-mode="lr-tb" unicode-bidi="normal" text-decoration="none" transform="matrix(1 0 0 1 2315.64 666)">𝑷</text><text fill="#C00000" fill-opacity="1" font-family="Cambria Math,Cambria Math_MSFontService,sans-serif" font-style="normal" font-variant="normal" font-weight="400" font-stretch="normal" font-size="60" text-anchor="start" direction="ltr" writing-mode="lr-tb" unicode-bidi="normal" text-decoration="none" transform="matrix(1 0 0 1 2372.36 690)">𝒕</text><text fill="#C00000" fill-opacity="1" font-family="Cambria Math,Cambria Math_MSFontService,sans-serif" font-style="normal" font-variant="normal" font-weight="400" font-stretch="normal" font-size="60" text-anchor="start" direction="ltr" writing-mode="lr-tb" unicode-bidi="normal" text-decoration="none" transform="matrix(1 0 0 1 2372.36 622)">𝒊𝒎𝒑</text><text fill="#C00000" fill-opacity="1" font-family="Cambria Math,Cambria Math_MSFontService,sans-serif" font-style="normal" font-variant="normal" font-weight="400" font-stretch="normal" font-size="83" text-anchor="start" direction="ltr" writing-mode="lr-tb" unicode-bidi="normal" text-decoration="none" transform="matrix(1 0 0 1 2320.52 871)">𝑷</text><text fill="#C00000" fill-opacity="1" font-family="Cambria Math,Cambria Math_MSFontService,sans-serif" font-style="normal" font-variant="normal" font-weight="400" font-stretch="normal" font-size="60" text-anchor="start" direction="ltr" writing-mode="lr-tb" unicode-bidi="normal" text-decoration="none" transform="matrix(1 0 0 1 2377.24 895)">𝒕</text><text fill="#C00000" fill-opacity="1" font-family="Cambria Math,Cambria Math_MSFontService,sans-serif" font-style="normal" font-variant="normal" font-weight="400" font-stretch="normal" font-size="60" text-anchor="start" direction="ltr" writing-mode="lr-tb" unicode-bidi="normal" text-decoration="none" transform="matrix(1 0 0 1 2377.24 827)">𝒆𝒙𝒑</text><g filter="url(#fx0)" transform="translate(2787 578)"><g><g><path d="M26.7075-4.82275C28.0314-4.82275 29.0581-4.93083 29.7876-5.14697 30.5171-5.36312 31.179-5.70085 31.7734-6.16016 32.3678-6.61947 33.023-7.25439 33.739-8.06494 34.455-8.87549 35.1642-9.9292 35.8667-11.2261 36.5692-12.5229 37.2852-14.144 38.0146-16.0894L43.5264-16.0894 39.3926 0 2.31006 0 2.87744-2.6748C4.41748-3.1071 5.55225-3.86361 6.28174-4.94434 7.01123-6.02506 7.70019-8.02441 8.34863-10.9424L15.7246-44.3774C16.0758-45.9715 16.2515-47.5521 16.2515-49.1191 16.2515-50.2539 15.988-51.0847 15.4612-51.6116 14.9343-52.1384 14.0765-52.4829 12.8877-52.645L13.4551-55.3198 33.8403-55.3198 33.2729-52.645C31.7329-52.2127 30.5981-51.4562 29.8687-50.3755 29.1392-49.2948 28.4502-47.2954 27.8018-44.3774L19.0478-4.82275Z" fill="#C00000" fill-rule="nonzero" fill-opacity="1" transform="matrix(1 0 0 1 34.8357 76)"/></g></g></g><path d="M26.7075-4.82275C28.0314-4.82275 29.0581-4.93083 29.7876-5.14697 30.5171-5.36312 31.179-5.70085 31.7734-6.16016 32.3678-6.61947 33.023-7.25439 33.739-8.06494 34.455-8.87549 35.1642-9.9292 35.8667-11.2261 36.5692-12.5229 37.2852-14.144 38.0146-16.0894L43.5264-16.0894 39.3926 0 2.31006 0 2.87744-2.6748C4.41748-3.1071 5.55225-3.86361 6.28174-4.94434 7.01123-6.02506 7.70019-8.02441 8.34863-10.9424L15.7246-44.3774C16.0758-45.9715 16.2515-47.5521 16.2515-49.1191 16.2515-50.2539 15.988-51.0847 15.4612-51.6116 14.9343-52.1384 14.0765-52.4829 12.8877-52.645L13.4551-55.3198 33.8403-55.3198 33.2729-52.645C31.7329-52.2127 30.5981-51.4562 29.8687-50.3755 29.1392-49.2948 28.4502-47.2954 27.8018-44.3774L19.0478-4.82275Z" fill="#C00000" fill-rule="nonzero" fill-opacity="1" transform="matrix(1 0 0 1 2819.91 652)"/><text fill="#000000" fill-opacity="0" font-family="Arial,Arial_MSFontService,sans-serif" font-size="55.3198" direction="ltr" writing-mode="lr-tb" x="2.31006" y="-6.91498">𝑳</text><g filter="url(#fx1)" transform="translate(2843 618)"><g><g><path d="M22.1191-5.33203C20.1465-3.16406 18.335-1.65527 16.6846-0.805664 15.0342 0.0439453 13.0859 0.46875 10.8398 0.46875 8.61328 0.46875 6.9043-0.102539 5.71289-1.24512 4.52148-2.3877 3.92578-3.96484 3.92578-5.97656 3.92578-6.89453 3.99414-7.76855 4.13086-8.59863 4.26758-9.42871 4.55078-10.791 4.98047-12.6855L7.99805-25.4004 3.42773-25.4004 3.98437-27.7734C5.35156-27.7734 6.38672-27.9004 7.08984-28.1543 7.79297-28.4082 8.38379-28.7891 8.8623-29.2969 9.34082-29.8047 9.80469-30.5762 10.2539-31.6113 10.7031-32.6465 11.2305-34.2383 11.8359-36.3867L18.8672-36.3867 17.168-29.0625 24.2871-29.0625 23.4961-25.4004 16.3184-25.4004 13.4766-13.6816C12.9883-11.6699 12.6514-10.1416 12.4658-9.09668 12.2803-8.05176 12.1875-7.16797 12.1875-6.44531 12.1875-5.52734 12.3535-4.8584 12.6855-4.43848 13.0176-4.01855 13.5059-3.80859 14.1504-3.80859 15.0293-3.80859 15.9326-4.12109 16.8603-4.74609 17.7881-5.37109 18.7891-6.33789 19.8633-7.64648Z" fill="#C00000" fill-rule="nonzero" fill-opacity="1" transform="matrix(1 0 0 1 25.2419 52)"/></g></g></g><path d="M22.1191-5.33203C20.1465-3.16406 18.335-1.65527 16.6846-0.805664 15.0342 0.0439453 13.0859 0.46875 10.8398 0.46875 8.61328 0.46875 6.9043-0.102539 5.71289-1.24512 4.52148-2.3877 3.92578-3.96484 3.92578-5.97656 3.92578-6.89453 3.99414-7.76855 4.13086-8.59863 4.26758-9.42871 4.55078-10.791 4.98047-12.6855L7.99805-25.4004 3.42773-25.4004 3.98437-27.7734C5.35156-27.7734 6.38672-27.9004 7.08984-28.1543 7.79297-28.4082 8.38379-28.7891 8.8623-29.2969 9.34082-29.8047 9.80469-30.5762 10.2539-31.6113 10.7031-32.6465 11.2305-34.2383 11.8359-36.3867L18.8672-36.3867 17.168-29.0625 24.2871-29.0625 23.4961-25.4004 16.3184-25.4004 13.4766-13.6816C12.9883-11.6699 12.6514-10.1416 12.4658-9.09668 12.2803-8.05176 12.1875-7.16797 12.1875-6.44531 12.1875-5.52734 12.3535-4.8584 12.6855-4.43848 13.0176-4.01855 13.5059-3.80859 14.1504-3.80859 15.0293-3.80859 15.9326-4.12109 16.8603-4.74609 17.7881-5.37109 18.7891-6.33789 19.8633-7.64648Z" fill="#C00000" fill-rule="nonzero" fill-opacity="1" transform="matrix(1 0 0 1 2866.32 669)"/><text fill="#000000" fill-opacity="0" font-family="Arial,Arial_MSFontService,sans-serif" font-size="36.8555" direction="ltr" writing-mode="lr-tb" x="3.42773" y="-4.13818">𝒕</text><g filter="url(#fx2)" transform="translate(2782 792)"><g><g><path d="M33.2324-15.0356C33.4486-16.0353 33.5837-16.8661 33.6377-17.5281 33.6917-18.19 33.7187-18.7912 33.7187-19.3315 33.7187-20.4393 33.4621-21.2701 32.9487-21.824 32.4354-22.3778 31.5573-22.7358 30.3145-22.8979L30.8818-25.5728 50.6592-25.5728 50.0918-22.8979C49.0381-22.5467 48.2546-22.1212 47.7412-21.6213 47.2279-21.1215 46.7685-20.392 46.3633-19.4329 45.958-18.4737 45.5122-16.8729 45.0259-14.6304L41.9053-0.648437 36.3125 0.648437 34.1645-2.229C30.6252-0.31071 26.9372 0.648437 23.1006 0.648437 17.4268 0.648437 13.0701-0.945638 10.0305-4.13379 6.99097-7.32194 5.47119-11.9285 5.47119-17.9536 5.47119-21.6821 6.10612-25.9443 7.37598-30.74 8.64583-35.5357 10.6114-39.8586 13.2727-43.7087 15.934-47.5588 19.2775-50.5646 23.3032-52.7261 27.3289-54.8875 31.895-55.9683 37.0015-55.9683 42.7293-55.9683 47.8628-55.1982 52.4019-53.6582L49.9297-42.0674 44.6206-42.0674C44.6206-44.418 44.3707-46.2485 43.8708-47.5588 43.371-48.8692 42.6077-49.8081 41.5811-50.3755 40.5544-50.9429 39.1764-51.2266 37.4473-51.2266 33.8538-51.2266 30.6252-49.5717 27.7612-46.262 24.8973-42.9522 22.4657-38.0889 20.4663-31.6721 18.467-25.2553 17.4673-19.4801 17.4673-14.3467 17.4673-7.51107 19.7233-4.09326 24.2353-4.09326 26.3968-4.09326 28.18-4.77547 29.585-6.13989 30.9899-7.50431 32.0166-9.61849 32.665-12.4824Z" fill="#C00000" fill-rule="nonzero" fill-opacity="1" transform="matrix(1 0 0 1 35.2524 77)"/></g></g></g><path d="M33.2324-15.0356C33.4486-16.0353 33.5837-16.8661 33.6377-17.5281 33.6917-18.19 33.7187-18.7912 33.7187-19.3315 33.7187-20.4393 33.4621-21.2701 32.9487-21.824 32.4354-22.3778 31.5573-22.7358 30.3145-22.8979L30.8818-25.5728 50.6592-25.5728 50.0918-22.8979C49.0381-22.5467 48.2546-22.1212 47.7412-21.6213 47.2279-21.1215 46.7685-20.392 46.3633-19.4329 45.958-18.4737 45.5122-16.8729 45.0259-14.6304L41.9053-0.648437 36.3125 0.648437 34.1645-2.229C30.6252-0.31071 26.9372 0.648437 23.1006 0.648437 17.4268 0.648437 13.0701-0.945638 10.0305-4.13379 6.99097-7.32194 5.47119-11.9285 5.47119-17.9536 5.47119-21.6821 6.10612-25.9443 7.37598-30.74 8.64583-35.5357 10.6114-39.8586 13.2727-43.7087 15.934-47.5588 19.2775-50.5646 23.3032-52.7261 27.3289-54.8875 31.895-55.9683 37.0015-55.9683 42.7293-55.9683 47.8628-55.1982 52.4019-53.6582L49.9297-42.0674 44.6206-42.0674C44.6206-44.418 44.3707-46.2485 43.8708-47.5588 43.371-48.8692 42.6077-49.8081 41.5811-50.3755 40.5544-50.9429 39.1764-51.2266 37.4473-51.2266 33.8538-51.2266 30.6252-49.5717 27.7612-46.262 24.8973-42.9522 22.4657-38.0889 20.4663-31.6721 18.467-25.2553 17.4673-19.4801 17.4673-14.3467 17.4673-7.51107 19.7233-4.09326 24.2353-4.09326 26.3968-4.09326 28.18-4.77547 29.585-6.13989 30.9899-7.50431 32.0166-9.61849 32.665-12.4824Z" fill="#C00000" fill-rule="nonzero" fill-opacity="1" transform="matrix(1 0 0 1 2815.33 867)"/><text fill="#000000" fill-opacity="0" font-family="Arial,Arial_MSFontService,sans-serif" font-size="56.6167" direction="ltr" writing-mode="lr-tb" x="5.47119" y="-6.42865">𝑮</text><g filter="url(#fx3)" transform="translate(2847 834)"><g><g><path d="M22.1191-5.33203C20.1465-3.16406 18.335-1.65527 16.6846-0.805664 15.0342 0.0439453 13.0859 0.46875 10.8398 0.46875 8.61328 0.46875 6.9043-0.102539 5.71289-1.24512 4.52148-2.3877 3.92578-3.96484 3.92578-5.97656 3.92578-6.89453 3.99414-7.76855 4.13086-8.59863 4.26758-9.42871 4.55078-10.791 4.98047-12.6855L7.99805-25.4004 3.42773-25.4004 3.98437-27.7734C5.35156-27.7734 6.38672-27.9004 7.08984-28.1543 7.79297-28.4082 8.38379-28.7891 8.8623-29.2969 9.34082-29.8047 9.80469-30.5762 10.2539-31.6113 10.7031-32.6465 11.2305-34.2383 11.8359-36.3867L18.8672-36.3867 17.168-29.0625 24.2871-29.0625 23.4961-25.4004 16.3184-25.4004 13.4766-13.6816C12.9883-11.6699 12.6514-10.1416 12.4658-9.09668 12.2803-8.05176 12.1875-7.16797 12.1875-6.44531 12.1875-5.52734 12.3535-4.8584 12.6855-4.43848 13.0176-4.01855 13.5059-3.80859 14.1504-3.80859 15.0293-3.80859 15.9326-4.12109 16.8603-4.74609 17.7881-5.37109 18.7891-6.33789 19.8633-7.64648Z" fill="#C00000" fill-rule="nonzero" fill-opacity="1" transform="matrix(1 0 0 1 25.8252 52)"/></g></g></g><path d="M22.1191-5.33203C20.1465-3.16406 18.335-1.65527 16.6846-0.805664 15.0342 0.0439453 13.0859 0.46875 10.8398 0.46875 8.61328 0.46875 6.9043-0.102539 5.71289-1.24512 4.52148-2.3877 3.92578-3.96484 3.92578-5.97656 3.92578-6.89453 3.99414-7.76855 4.13086-8.59863 4.26758-9.42871 4.55078-10.791 4.98047-12.6855L7.99805-25.4004 3.42773-25.4004 3.98437-27.7734C5.35156-27.7734 6.38672-27.9004 7.08984-28.1543 7.79297-28.4082 8.38379-28.7891 8.8623-29.2969 9.34082-29.8047 9.80469-30.5762 10.2539-31.6113 10.7031-32.6465 11.2305-34.2383 11.8359-36.3867L18.8672-36.3867 17.168-29.0625 24.2871-29.0625 23.4961-25.4004 16.3184-25.4004 13.4766-13.6816C12.9883-11.6699 12.6514-10.1416 12.4658-9.09668 12.2803-8.05176 12.1875-7.16797 12.1875-6.44531 12.1875-5.52734 12.3535-4.8584 12.6855-4.43848 13.0176-4.01855 13.5059-3.80859 14.1504-3.80859 15.0293-3.80859 15.9326-4.12109 16.8603-4.74609 17.7881-5.37109 18.7891-6.33789 19.8633-7.64648Z" fill="#C00000" fill-rule="nonzero" fill-opacity="1" transform="matrix(1 0 0 1 2870.9 884)"/><text fill="#000000" fill-opacity="0" font-family="Arial,Arial_MSFontService,sans-serif" font-size="36.8555" direction="ltr" writing-mode="lr-tb" x="3.42773" y="-4.13818">𝒕</text><g><g><g><path d="M151.911 116.713C143.274 114.986 134.872 120.589 133.146 129.226 131.419 137.863 137.021 146.265 145.659 147.991 154.296 149.718 162.697 144.115 164.424 135.478 164.836 133.416 164.836 131.291 164.424 129.228 163.158 122.915 158.224 117.981 151.911 116.713ZM151.499 143.907C145.107 145.392 138.72 141.415 137.235 135.022 136.824 133.252 136.824 131.411 137.236 129.64 138.242 125.242 141.675 121.807 146.074 120.799 152.465 119.313 158.852 123.289 160.339 129.681 160.751 131.453 160.751 133.296 160.338 135.068 159.331 139.466 155.897 142.9 151.499 143.907Z" stroke="#C00000" stroke-width="3.50001" stroke-linecap="butt" stroke-linejoin="miter" stroke-miterlimit="4" stroke-opacity="1" fill="#C00000" fill-rule="nonzero" fill-opacity="1" transform="matrix(1 0 0 1 2954 527)"/><path d="M128.854 130.667 90.5663 130.667C90.613 131.224 90.6516 131.783 90.6516 132.352 90.6469 133.154 90.5944 133.955 90.494 134.75L128.926 134.75C128.825 133.955 128.773 133.154 128.768 132.352 128.768 131.783 128.807 131.224 128.854 130.667Z" stroke="#C00000" stroke-width="3.50001" stroke-linecap="butt" stroke-linejoin="miter" stroke-miterlimit="4" stroke-opacity="1" fill="#C00000" fill-rule="nonzero" fill-opacity="1" transform="matrix(1 0 0 1 2954 527)"/><path d="M168.2 99.5672 154.191 99.5672C154.163 99.5661 154.139 99.5506 154.11 99.5506L153.455 99.5506C151.652 99.568 149.927 98.814 148.715 97.4781L126.567 75.5018C123.907 72.8615 120.296 71.404 116.548 71.4583L68.1886 71.4583C64.4474 71.4367 60.8482 72.8889 58.1697 75.5008L36.3743 97.4781C35.0068 98.8199 34.2453 100.661 34.2651 102.577L34.2651 116.375 28.5931 116.375C25.2103 116.375 22.4681 113.633 22.4681 110.25L22.4681 75.3352C27.2175 74.3593 30.6283 70.1819 30.6348 65.3333L30.6348 57.1666 27.5723 57.1666 27.5723 49C27.5723 47.8724 26.6582 46.9583 25.5306 46.9583 24.403 46.9583 23.489 47.8724 23.489 49L23.489 57.1666 17.364 57.1666 17.364 49C17.364 47.8724 16.4499 46.9583 15.3223 46.9583 14.1947 46.9583 13.2806 47.8724 13.2806 49L13.2806 57.1666 10.2181 57.1666 10.2181 65.3333C10.2246 70.1819 13.6355 74.3593 18.3848 75.3352L18.3848 110.25C18.3848 115.888 22.9553 120.458 28.5931 120.458L34.2651 120.458 34.2651 120.685C34.2877 128.443 40.5716 134.727 48.3299 134.75L50.7715 134.75C50.6711 133.955 50.6182 133.154 50.6137 132.352 50.6137 131.783 50.6525 131.224 50.6993 130.667L48.3262 130.667C42.8156 130.666 38.3482 126.199 38.3482 120.688L38.3482 103.635 153.465 103.635C153.524 103.635 153.577 103.652 153.636 103.652L168.225 103.652C175.677 103.652 181.718 109.693 181.718 117.145L181.718 127.719C181.717 129.347 180.397 130.666 178.769 130.667L168.721 130.667C168.768 131.224 168.806 131.783 168.806 132.352 168.801 133.154 168.749 133.955 168.649 134.75L178.771 134.75C182.649 134.739 185.79 131.597 185.801 127.719L185.801 117.169C185.773 107.46 177.909 99.5957 168.2 99.5672ZM14.3015 65.0916 14.3015 61.25 26.5515 61.25 26.5515 65.3333C26.5472 68.7215 23.7968 71.4646 20.4087 71.4602 20.0048 71.4597 19.6018 71.4193 19.2057 71.3395 16.2961 70.6835 14.2476 68.0738 14.3015 65.0916ZM123.691 78.4 145.005 99.5516 91.8848 99.5516 91.8848 75.5416 116.548 75.5416C119.218 75.4869 121.796 76.5184 123.691 78.4ZM61.0572 78.3885C62.9674 76.5386 65.5295 75.5159 68.1886 75.5416L87.8014 75.5416 87.8014 99.5516 40.1187 99.5516C40.0918 99.5516 40.0853 99.5361 40.1042 99.5169Z" stroke="#C00000" stroke-width="3.50001" stroke-linecap="butt" stroke-linejoin="miter" stroke-miterlimit="4" stroke-opacity="1" fill="#C00000" fill-rule="nonzero" fill-opacity="1" transform="matrix(1 0 0 1 2954 527)"/><path d="M73.756 116.713C65.1187 114.987 56.7173 120.589 54.9908 129.226 53.2644 137.863 58.8667 146.265 67.504 147.991 76.1413 149.718 84.5427 144.115 86.2692 135.478 86.6814 133.415 86.6816 131.291 86.2696 129.228 85.0029 122.915 80.0688 117.981 73.756 116.713ZM73.3442 143.907C66.952 145.392 60.5658 141.415 59.0805 135.023 58.6689 133.252 58.6691 131.411 59.0811 129.64 60.0873 125.242 63.5211 121.807 67.9191 120.8 74.3111 119.313 80.6979 123.29 82.1842 129.682 82.5964 131.454 82.596 133.297 82.1834 135.069 81.1758 139.466 77.7417 142.9 73.3442 143.907Z" stroke="#C00000" stroke-width="3.50001" stroke-linecap="butt" stroke-linejoin="miter" stroke-miterlimit="4" stroke-opacity="1" fill="#C00000" fill-rule="nonzero" fill-opacity="1" transform="matrix(1 0 0 1 2954 527)"/></g></g></g><g><g><g><path d="M3068.58 767.906 3072.01 767.906 3072.01 786.813 3068.58 786.813Z" stroke="#C00000" stroke-width="3.4375" stroke-linecap="butt" stroke-linejoin="miter" stroke-miterlimit="4" stroke-opacity="1" fill="#C00000" fill-rule="nonzero" fill-opacity="1"/><path d="M3102.95 817.75 3121.86 817.75 3121.86 821.188 3102.95 821.188Z" stroke="#C00000" stroke-width="3.4375" stroke-linecap="butt" stroke-linejoin="miter" stroke-miterlimit="4" stroke-opacity="1" fill="#C00000" fill-rule="nonzero" fill-opacity="1"/><path d="M3018.73 817.75 3037.64 817.75 3037.64 821.188 3018.73 821.188Z" stroke="#C00000" stroke-width="3.4375" stroke-linecap="butt" stroke-linejoin="miter" stroke-miterlimit="4" stroke-opacity="1" fill="#C00000" fill-rule="nonzero" fill-opacity="1"/><path d="M3092.17 843.775 3094.6 841.344 3107.97 854.713 3105.54 857.144Z" stroke="#C00000" stroke-width="3.4375" stroke-linecap="butt" stroke-linejoin="miter" stroke-miterlimit="4" stroke-opacity="1" fill="#C00000" fill-rule="nonzero" fill-opacity="1"/><path d="M3032.62 784.224 3035.05 781.794 3048.42 795.163 3045.99 797.593Z" stroke="#C00000" stroke-width="3.4375" stroke-linecap="butt" stroke-linejoin="miter" stroke-miterlimit="4" stroke-opacity="1" fill="#C00000" fill-rule="nonzero" fill-opacity="1"/><path d="M3092.17 795.163 3105.54 781.794 3107.97 784.224 3094.6 797.593Z" stroke="#C00000" stroke-width="3.4375" stroke-linecap="butt" stroke-linejoin="miter" stroke-miterlimit="4" stroke-opacity="1" fill="#C00000" fill-rule="nonzero" fill-opacity="1"/><path d="M3069.5 793.699C3056.3 794.205 3045.57 804.536 3044.57 817.712 3044.35 820.985 3044.75 824.272 3045.77 827.393 3047.66 828.383 3049.45 829.561 3051.1 830.911 3051.14 830.94 3051.15 830.932 3051.13 830.892 3048.51 826.553 3047.47 821.45 3048.16 816.433 3049.82 804.205 3061.08 795.641 3073.31 797.305 3085.54 798.968 3094.1 810.229 3092.44 822.456 3091.2 831.554 3084.52 838.968 3075.6 841.149 3076.73 841.944 3077.79 842.828 3078.78 843.791 3092.22 839.111 3099.32 824.421 3094.64 810.981 3090.94 800.346 3080.76 793.347 3069.5 793.699Z" stroke="#C00000" stroke-width="3.4375" stroke-linecap="butt" stroke-linejoin="miter" stroke-miterlimit="4" stroke-opacity="1" fill="#C00000" fill-rule="nonzero" fill-opacity="1"/><path d="M3001.18 897.541 3083.7 897.713 3083.72 897.713C3093.63 897.473 3101.47 889.247 3101.23 879.338 3101.23 879.263 3101.22 879.187 3101.22 879.112 3100.87 869.305 3092.79 861.551 3082.98 861.607 3082.98 861.607 3082.05 861.61 3081.73 861.617 3080.75 850.009 3071.09 841.062 3059.44 840.973 3057.52 840.974 3055.6 841.218 3053.74 841.7 3046.06 829.123 3029.64 825.156 3017.06 832.839 3009.88 837.224 3005.19 844.738 3004.4 853.113 3003.7 853.044 3003 853.01 3002.3 853.01 2995.52 853.045 2989.11 856.135 2984.87 861.42 2979.84 867.974 2978.78 876.739 2982.08 884.308 2985.46 891.954 2992.84 897.063 3001.18 897.541ZM2987.55 863.568C2991.15 859.097 2996.56 856.481 3002.3 856.447 3002.89 856.447 3003.49 856.476 3004.07 856.533L3007.48 856.87 3007.82 853.455C3008.74 843.559 3015.85 835.342 3025.52 833.013 3035.33 830.579 3045.58 834.822 3050.8 843.477L3052.12 845.67 3054.6 845.028C3056.18 844.619 3057.81 844.411 3059.44 844.411 3063.41 844.394 3067.27 845.665 3070.46 848.032L3070.51 848.069 3070.56 848.104C3075.1 851.277 3077.95 856.345 3078.31 861.875L3078.55 865.124 3082.98 865.044C3090.95 864.986 3097.51 871.281 3097.78 879.241 3097.94 883.136 3096.51 886.928 3093.82 889.75 3091.2 892.561 3087.55 894.193 3083.71 894.275L3001.3 894.103C2994.27 893.657 2988.07 889.339 2985.21 882.898 2982.42 876.508 2983.32 869.108 2987.55 863.568Z" stroke="#C00000" stroke-width="3.4375" stroke-linecap="butt" stroke-linejoin="miter" stroke-miterlimit="4" stroke-opacity="1" fill="#C00000" fill-rule="nonzero" fill-opacity="1"/></g></g></g><g><g><g><path d="M157.177 69.6355C158.276 69.6355 159.167 68.7447 159.167 67.6459L159.167 57.698C159.167 56.9174 158.711 56.2086 158.001 55.8854L114.23 35.9896C113.972 35.8716 113.69 35.8111 113.406 35.8125L112.324 35.8125 111.405 27.6314C111.367 27.3013 111.247 26.9861 111.057 26.7142L97.1295 6.81831C96.499 5.91838 95.2583 5.69996 94.3584 6.33044 94.1686 6.46342 94.0035 6.62852 93.8706 6.81831L79.9435 26.7142C79.7527 26.9861 79.6329 27.3013 79.5953 27.6314L78.6761 35.8125 77.5938 35.8125C77.3095 35.8117 77.0284 35.873 76.7701 35.9916L32.9993 55.8874C32.2894 56.2103 31.8336 56.918 31.8334 57.698L31.8334 67.6459C31.8334 68.7447 32.7241 69.6355 33.8229 69.6355 34.9218 69.6355 35.8125 68.7447 35.8125 67.6459L35.8125 59.6875 76.0021 59.6875 73.5748 81.2148 32.9993 99.6583C32.2894 99.9812 31.8336 100.689 31.8334 101.469L31.8334 111.417C31.8334 112.516 32.7241 113.406 33.8229 113.406 34.9218 113.406 35.8125 112.516 35.8125 111.417L35.8125 103.458 71.0759 103.458 69.6832 115.899 43.2675 181.989C42.8598 183.01 43.3566 184.167 44.3769 184.575 44.6113 184.669 44.8614 184.717 45.1138 184.717 45.3818 184.716 45.647 184.662 45.8937 184.558L95.3946 163.45 145.186 184.701C146.197 185.132 147.366 184.663 147.797 183.652 148.003 183.168 148.01 182.621 147.814 182.133L121.321 115.899 119.924 103.458 155.188 103.458 155.188 111.417C155.188 112.516 156.078 113.406 157.177 113.406 158.276 113.406 159.167 112.516 159.167 111.417L159.167 101.469C159.167 100.689 158.711 99.9812 158.001 99.6583L117.425 81.2148 114.998 59.6875 155.188 59.6875 155.188 67.6459C155.188 68.7447 156.078 69.6355 157.177 69.6355ZM83.4929 28.5804 95.4841 11.452C95.4887 11.4433 95.4995 11.4398 95.5082 11.4443 95.5116 11.446 95.5142 11.4487 95.516 11.452L107.507 28.5804 108.319 35.8125 82.6812 35.8125ZM108.767 39.7917 110.557 55.7084 80.4449 55.7084 82.2355 39.7917ZM43.0984 55.7084C43.0486 55.7084 43.0447 55.6905 43.0984 55.6706L78.0255 39.7917 78.2245 39.7917 76.4339 55.7084ZM43.0984 99.4414 73.0575 85.8207 71.5236 99.4792 43.0984 99.4792C43.0486 99.4792 43.0447 99.4613 43.0904 99.4414ZM77.2854 83.9028 78.0255 83.5626 112.975 83.5626 113.723 83.9028 115.474 99.4792 75.5266 99.4792ZM118.669 119.958 126.733 140.117 100.271 128.225ZM127.333 144.754C127.736 144.942 128.193 144.98 128.621 144.862L128.676 145.001C128.571 145.014 128.466 145.036 128.364 145.067L95.3946 159.125 62.459 145.067C62.4133 145.054 62.3667 145.045 62.3198 145.039L62.3795 144.888C62.4757 144.908 62.5736 144.922 62.6719 144.929 62.953 144.929 63.231 144.869 63.4876 144.754L95.4105 130.407ZM64.3273 140.015 72.3154 120.028 90.5559 128.225ZM48.7826 178.999C48.7588 178.999 48.7468 178.999 48.7568 178.973L60.8554 148.7C60.8713 148.7 60.8813 148.721 60.8952 148.727L90.3271 161.286ZM100.466 161.292 129.92 148.727C129.989 148.688 130.055 148.644 130.119 148.596L142.327 179.114C142.327 179.14 142.327 179.152 142.299 179.14ZM117.35 116.192 95.4105 126.044 73.6425 116.259 75.081 103.458 115.919 103.458ZM147.902 99.4792 119.477 99.4792 117.943 85.8207 147.91 99.4414C147.955 99.4613 147.951 99.4792 147.902 99.4792ZM113.237 79.5834 77.7629 79.5834 79.9992 59.6875 111.001 59.6875ZM112.77 39.7917 112.969 39.7917 147.904 55.6706C147.949 55.6905 147.946 55.7084 147.904 55.7084L114.558 55.7084Z" stroke="#C00000" stroke-width="3.47272" stroke-linecap="butt" stroke-linejoin="miter" stroke-miterlimit="4" stroke-opacity="1" fill="#C00000" fill-rule="nonzero" fill-opacity="1" transform="matrix(1.00523 0 0 1 2073 637)"/></g></g></g><path d="M2755.5 577.335C2755.5 534.348 2790.35 499.5 2833.33 499.5L3194.67 499.5C3237.65 499.5 3272.5 534.348 3272.5 577.335L3272.5 888.665C3272.5 931.652 3237.65 966.5 3194.67 966.5L2833.33 966.5C2790.35 966.5 2755.5 931.652 2755.5 888.665Z" stroke="#C00000" stroke-width="6.875" stroke-linecap="butt" stroke-linejoin="miter" stroke-miterlimit="8" stroke-opacity="1" fill="none" fill-rule="evenodd"/><g clip-path="url(#clip6)"><g clip-path="url(#clip7)"></g></g><g clip-path="url(#clip8)"><g clip-path="url(#clip9)"></g></g></g></g></svg>