<?xml version="1.0" encoding="UTF-8" standalone="no"?>
<svg
   width="573.73303"
   height="141.1889"
   viewBox="0 0 573.73303 141.1889"
   fill="none"
   version="1.1"
   id="svg11"
   xmlns="http://www.w3.org/2000/svg"
   xmlns:svg="http://www.w3.org/2000/svg">
  <path
     d="M 9.6652114e-8,104.1819 10.8999,35.140901 66.028,3.9858183e-7 106.828,8.0858004 142.024,107.9129 l -32.705,33.276 z"
     fill="url(#paint0_radial_2403_14135)"
     id="path1"
     style="fill:url(#paint0_radial_2403_14135)" />
  <path
     d="m 215.845,107.6749 c -24.985,0 -39.56,-19.228999 -39.56,-45.682999 0,-26.333 15.187,-45.561 41.887,-45.561 23.393,0 36.253,13.349 38.702,30.129 h -19.473 c -1.838,-7.839 -7.104,-14.575 -19.597,-14.575 -16.166,0 -22.168,13.595 -22.168,30.007 0,16.534 5.267,30.129 22.536,30.129 11.635,0 20.453,-7.594 20.576,-18.372 h -19.964 v -14.207 h 39.438 V 105.8379 h -13.35 l -2.695,-11.512999 h -0.245 C 237.033,102.6539 228.827,107.6749 215.845,107.6749 Z"
     fill="#0a0a0a"
     id="path2" />
  <path
     d="m 309.251,80.560901 v -36.988 H 326.03 V 106.1579 h -16.779 v -8.572999 h -0.245 c -3.307,5.388999 -9.553,10.409999 -20.576,10.409999 -11.88,0 -20.453,-7.471 -20.453,-21.799999 v -42.622 h 16.779 v 37.478 c 0,9.063 3.429,13.227 10.9,13.227 8.451,0 13.595,-4.777 13.595,-13.717 z"
     fill="#0a0a0a"
     id="path3" />
  <path
     d="m 410.138,108.1179 c -20.208,0 -32.578,-13.472999 -32.578,-33.190999 0,-19.596 12.37,-33.436 32.823,-33.436 20.209,0 32.579,13.472 32.579,33.191 0,19.719 -12.37,33.435999 -32.824,33.435999 z m 0.123,-12.859999 c 10.288,0 15.554,-7.961 15.554,-20.454 0,-12.492 -5.266,-20.331 -15.554,-20.331 -10.288,0 -15.555,7.839 -15.555,20.331 0,12.493 5.267,20.454 15.555,20.454 z"
     fill="#0a0a0a"
     id="path4" />
  <path
     d="m 486.186,41.944901 c 16.289,0 27.557,12.615 27.557,33.191 0,20.576 -11.268,33.190999 -27.557,33.190999 -9.431,0 -15.8,-4.654 -18.617,-8.572999 h -0.245 V 106.4899 H 450.545 V 18.919901 h 16.779 v 31.599 h 0.245 c 2.817,-3.675 9.186,-8.574 18.617,-8.574 z m -4.165,53.522 c 9.309,0 14.33,-8.083 14.33,-20.331 0,-12.247 -5.021,-20.208 -14.33,-20.208 -9.063,0 -14.452,7.348 -14.452,20.208 0,12.983 5.389,20.331 14.452,20.331 z"
     fill="#0a0a0a"
     id="path5" />
  <path
     d="m 538.949,35.350901 h -17.392 v -16.431 h 17.392 z M 538.581,106.7539 H 521.802 V 45.136901 h 16.779 z"
     fill="#0a0a0a"
     id="path6" />
  <path
     d="m 351.811,42.808901 h 22.014 l 0.099,15.664 H 352.252 L 352.153,105.8399 H 335.506 V 58.937901 Z"
     fill="#0a0a0a"
     id="path7" />
  <path
     d="m 571.222,33.348901 c -1.673,1.653 -3.735,2.48 -6.185,2.48 -2.45,0 -4.512,-0.827 -6.185,-2.48 -1.674,-1.652 -2.511,-3.725 -2.511,-6.216 0,-2.491 0.837,-4.563 2.511,-6.216 1.673,-1.653 3.735,-2.48 6.185,-2.48 2.45,0 4.512,0.827 6.185,2.48 1.674,1.653 2.511,3.725 2.511,6.216 0,2.491 -0.837,4.564 -2.511,6.216 z m -6.185,1.15 c 2.062,0 3.76,-0.694 5.094,-2.084 1.334,-1.389 2.001,-3.15 2.001,-5.282 0,-2.108 -0.667,-3.857 -2.001,-5.246 -1.334,-1.389 -3.032,-2.084 -5.094,-2.084 -2.038,0 -3.735,0.695 -5.094,2.084 -1.334,1.389 -2.001,3.138 -2.001,5.246 0,2.108 0.667,3.869 2.001,5.282 1.359,1.39 3.056,2.084 5.094,2.084 z m -3.711,-2.838 v -9.199 h 4.511 c 0.946,0 1.735,0.239 2.365,0.719 0.655,0.479 0.983,1.137 0.983,1.976 0,1.102 -0.534,1.832 -1.601,2.192 v 0.072 c 0.728,0.215 1.188,0.766 1.382,1.653 0.049,0.287 0.085,0.646 0.11,1.077 0.024,0.408 0.06,0.719 0.109,0.935 0.048,0.215 0.121,0.347 0.218,0.395 v 0.18 h -2.474 c -0.097,-0.048 -0.231,-0.755 -0.4,-2.12 -0.073,-0.815 -0.558,-1.222 -1.456,-1.222 h -1.237 v 3.342 z m 2.51,-7.223 v 2.084 h 1.565 c 0.873,0 1.31,-0.347 1.31,-1.042 0,-0.694 -0.437,-1.042 -1.31,-1.042 z"
     fill="#0a0a0a"
     id="path8" />
  <defs
     id="defs11">
    <radialGradient
       id="paint0_radial_2403_14135"
       cx="0"
       cy="0"
       r="1"
       gradientUnits="userSpaceOnUse"
       gradientTransform="matrix(165.55655,181.07767,-126.05981,115.25456,-3.6250999,-26.776699)">
      <stop
         offset="0.0384616"
         stop-color="#CAEBEC"
         id="stop8" />
      <stop
         offset="0.298077"
         stop-color="#10ECD1"
         id="stop9" />
      <stop
         offset="0.677885"
         stop-color="#2158A4"
         id="stop10" />
      <stop
         offset="0.975962"
         stop-color="#1F063D"
         id="stop11" />
    </radialGradient>
  </defs>
</svg>
